{"title":"Small Apartments 2012 DVDRip XviD juggs","uid":8181077,"size":745738653,"categoryP":"video","categoryS":"movies","magnet":"?xt=urn:btih:bcc2b477ee9d647002d84783f1ae848d1c9f563c&amp;dn=Small+Apartments+2012+DVDRip+XviD+juggs&amp;tr=udp%3A%2F%2Ftracker.openbittorrent.com%3A80&amp;tr=udp%3A%2F%2Fopen.demonii.com%3A1337&amp;tr=udp%3A%2F%2Ftracker.coppersurfer.tk%3A6969&amp;tr=udp%3A%2F%2Fexodus.desync.com%3A6969","seeders":9,"leechers":4,"uploader":"juggs99","files":3,"time":1361627361,"description":"Format : AVI\nFormat/Info : Audio Video Interleave\nFile size : 702 MiB\nDuration : 1h 36mn\nOverall bit rate : 1 022 Kbps\nWriting library : VirtualDub build 32842/release\n\nVideo\nID : 0\nFormat : MPEG-4 Visual\nFormat profile : Advanced Simple@L5\nFormat settings, BVOP : 4\nFormat settings, QPel : No\nFormat settings, GMC : No warppoints\nFormat settings, Matrix : Default (H.263)\nMuxing mode : Packed bitstream\nCodec ID : XVID\nCodec ID/Hint : XviD\nDuration : 1h 36mn\nBit rate : 885 Kbps\nWidth : 640 pixels\nHeight : 336 pixels\nDisplay aspect ratio : 1.905\nFrame rate : 23.976 fps\nColor space : YUV\nChroma subsampling : 4:2:0\nBit depth : 8 bits\nScan type : Progressive\nCompression mode : Lossy\nBits/(Pixel*Frame) : 0.172\nStream size : 608 MiB (87%)\nWriting library : XviD 64\n\nAudio\nID : 1\nFormat : MPEG Audio\nFormat version : Version 1\nFormat profile : Layer 3\nCodec ID : 55\nCodec ID/Hint : MP3\nDuration : 1h 36mn\nBit rate mode : Constant\nBit rate : 128 Kbps\nChannel(s) : 2 channels\nSampling rate : 44.1 KHz\nCompression mode : Lossy\nStream size : 87.9 MiB (13%)\nAlignment : Split accross interleaves\nInterleave, duration : 42 ms (1.00 video frame)\nInterleave, preload duration : 500 ms\nWriting library : LAME3.99r\nEncoding settings : -m s -V 4 -q 3 -lowpass 17 -b 128\n\nPlot\nA man is surrounded by strange events and odd neighbors in this adaptation of Chris Millis' novel.\n\n\n &lt;a href=&quot;\nhttp://www.shotpix.com/images/25856112172056303754.png&quot; rel=&quot;nofollow&quot; target=&quot;_NEW&quot;&gt;\nhttp://www.shotpix.com/images/25856112172056303754.png&lt;/a&gt; &lt;a href=&quot;\nhttp://www.shotpix.com/images/74458095020350255428.png&quot; rel=&quot;nofollow&quot; target=&quot;_NEW&quot;&gt;\nhttp://www.shotpix.com/images/74458095020350255428.png&lt;/a&gt; &lt;a href=&quot;\nhttp://www.shotpix.com/images/78528021888203209877.png&quot; rel=&quot;nofollow&quot; target=&quot;_NEW&quot;&gt;\nhttp://www.shotpix.com/images/78528021888203209877.png&lt;/a&gt;","torrent":{"xt":"urn:btih:bcc2b477ee9d647002d84783f1ae848d1c9f563c","amp;dn":"Small+Apartments+2012+DVDRip+XviD+juggs","amp;tr":["udp%3A%2F%2Ftracker.openbittorrent.com%3A80","udp%3A%2F%2Fopen.demonii.com%3A1337","udp%3A%2F%2Ftracker.coppersurfer.tk%3A6969","udp%3A%2F%2Fexodus.desync.com%3A6969"],"infoHash":"bcc2b477ee9d647002d84783f1ae848d1c9f563c","infoHashBuffer":{"type":"Buffer","data":[188,194,180,119,238,157,100,112,2,216,71,131,241,174,132,141,28,159,86,60]},"announce":[],"urlList":[]}}